<svg height="480pt" viewBox="0 -23 480 480" width="480pt" xmlns="http://www.w3.org/2000/svg"><path d="m8 378.800781h232v48h-232zm0 0" fill="#214364"/><path d="m240 378.800781h232v48h-232zm0 0" fill="#254b6f"/><path d="m278.238281 370.800781 21.050781-9.207031c43.699219-19.078125 93.441407-18.722656 136.863282.972656l16.535156 7.515625 6.625-14.5625-16.535156-7.519531c-47.558594-21.585938-102.039063-21.972656-149.898438-1.0625l-12 5.253906 2.097656-1.917968c33.488282-30.933594 81.679688-40.070313 124.167969-23.546876l30 11.546876 5.742188-14.945313-30-11.535156c-48.148438-18.722657-102.761719-8.371094-140.71875 26.679687l-32.167969 29.472656-32.152344-29.472656c-37.957031-35.050781-92.566406-45.402344-140.71875-26.679687l-30 11.535156 5.742188 14.945313 30-11.546876c42.488281-16.527343 90.679687-7.390624 124.167968 23.546876l2.097657 1.917968-12-5.253906c-47.859375-20.910156-102.339844-20.523438-149.898438 1.0625l-16.535156 7.519531 6.625 14.5625 16.535156-7.515625c43.421875-19.703125 93.164063-20.054687 136.863281-.972656l21.035157 9.207031h-201.761719v64h480v-64zm-46.238281 48h-216v-32h216zm232 0h-216v-32h216zm0 0" fill="#112f41"/><path d="m239.921875 43.199219-6.960937-6.960938c-18.722657-18.71875-43.28125-36.1562498-67.839844-36.1562498-38.832032.0078126-73.839844 23.3984378-88.707032 59.2734378-14.863281 35.875-6.660156 77.171875 20.785157 104.644531l142.800781 134.800781v-255.679687zm0 0" fill="#ee2820"/><path d="m382.480469 27.921875c-17.960938-17.921875-42.308594-27.96875-67.679688-27.921875-24.640625 0-49.28125 17.441406-68.082031 36.320312l-6.71875 6.800782v255.679687l142.878906-135.121093c17.964844-18.046876 28.015625-42.5 27.941406-67.960938-.078124-25.464844-10.269531-49.855469-28.339843-67.796875zm0 0" fill="#f03c34"/></svg>